#!OML:ASF X:\für Bonn\!DataBase\2005_08_10_Bjorn_Final\c3d\bjorn.ASF
:FULLY-SPECIFIED
:DEGREES
63
root 8.40284 17.9983 2.2114 -188.737 84.4569 -190.189
lowerback 25.0062 2.45241 1.59056
upperback 18.6209 6.0354 -2.83691
thorax 7.71416 4.47351 -4.93721
lowerneck 2.07301 -6.83091 1.81295
upperneck 4.51599 -9.16059 5.40811
head 1.24219 -4.4481 1.3248
rclavicle 1.59028e-015 -6.2816e-014
rhumerus 14.7081 -1.35777 -78.9402
rradius 34.17
rwrist -3.35437
rhand -15.0721 14.3734
rfingers 7.12502
rthumb 11.0953 -15.3133
lclavicle 1.59028e-015 -6.2816e-014
lhumerus -0.982685 -21.6422 83.7476
lradius 32.1096
lwrist -16.0101
lhand -23.8017 -11.7124
lfingers 7.12502
lthumb 2.66882 18.2507
rfemur -29.0352 -7.8306 17.1699
rtibia 57.0155
rfoot -21.5543 17.5048
rtoes -1.66925
lfemur -38.6729 10.0922 -17.1456
ltibia 49.2524
lfoot -5.64391 -5.48735
ltoes -10.6278
64
root 8.4087 17.8964 2.18236 -190.598 84.2746 -192.455
lowerback 25.4343 2.39376 1.60218
upperback 18.644 5.98421 -2.87807
thorax 7.54361 4.46092 -5.0181
lowerneck 1.96194 -6.93318 1.81469
upperneck 4.31974 -9.3007 5.49907
head 1.20696 -4.52367 1.35086
rclavicle 6.75868e-014 -3.35946e-014
rhumerus 14.9853 -1.51147 -78.5516
rradius 33.9901
rwrist -3.45552
rhand -14.9923 14.3186
rfingers 7.12502
rthumb 11.1721 -15.364
lclavicle 6.75868e-014 -3.35946e-014
lhumerus 0.159641 -22.3174 83.4117
lradius 32.1553
lwrist -16.1826
lhand -23.9298 -11.7485
lfingers 7.12502
lthumb 2.54513 18.216
rfemur -30.4717 -7.99517 16.8018
rtibia 58.8844
rfoot -21.9851 17.7241
rtoes -1.76731
lfemur -40.0613 9.91954 -17.5998
ltibia 50.8603
lfoot -6.24809 -5.57236
ltoes -10.8237
65
root 8.41606 17.7869 2.15332 -191.796 84.0917 -193.964
lowerback 25.9087 2.31222 1.67756
upperback 18.6616 5.91535 -2.90188
thorax 7.34796 4.44449 -5.11653
lowerneck 1.86503 -7.01865 1.82471
upperneck 4.16534 -9.41783 5.57496
head 1.18093 -4.58629 1.37088
rclavicle 5.88403e-014 5.60573e-014
rhumerus 15.2351 -1.66411 -78.1918
rradius 33.7448
rwrist -3.35623
rhand -14.9861 14.3132
rfingers 7.12502
rthumb 11.1781 -15.369
lclavicle 5.88403e-014 5.60573e-014
lhumerus 1.25638 -22.9999 83.0356
lradius 32.1911
lwrist -16.2754
lhand -24.0195 -11.8402
lfingers 7.12502
lthumb 2.4585 18.1254
rfemur -31.8131 -8.16607 16.4945
rtibia 60.7975
rfoot -22.4661 17.891
rtoes -2.21093
lfemur -41.3893 9.76139 -17.9608
ltibia 52.543
lfoot -6.87055 -5.69399
ltoes -10.6881
66
root 8.42327 17.6706 2.12392 -192.742 83.9178 -195.188
lowerback 26.4071 2.23332 1.7807
upperback 18.6573 5.85089 -2.91006
thorax 7.11643 4.42905 -5.21714
lowerneck 1.76402 -7.11789 1.92159
upperneck 4.05791 -9.55086 5.55687
head 1.16105 -4.65477 1.34651
rclavicle -4.85035e-014 -1.27222e-014
rhumerus 15.4601 -1.9156 -77.875
rradius 33.4741
rwrist -3.10086
rhand -14.8708 14.2578
rfingers 7.12502
rthumb 11.2894 -15.4184
lclavicle -4.85035e-014 -1.27222e-014
lhumerus 2.31266 -23.7081 82.6411
lradius 32.2459
lwrist -16.2861
lhand -24.1374 -11.9341
lfingers 7.12502
lthumb 2.34468 18.0327
rfemur -33.1433 -8.35883 16.1995
rtibia 62.7422
rfoot -22.8108 18.1359
rtoes -2.31215
lfemur -42.7186 9.62652 -18.298
ltibia 54.288
lfoot -7.53583 -5.82606
ltoes -10.657
67
root 8.43176 17.5458 2.09459 -193.326 83.7654 -196.001
lowerback 26.9553 2.14766 1.90337
upperback 18.5955 5.76978 -2.91219
thorax 6.79134 4.39913 -5.3272
lowerneck 1.77153 -7.20717 2.04203
upperneck 3.96859 -9.66321 5.50107
head 1.12472 -4.71337 1.31084
rclavicle -2.26615e-014 4.53229e-014
rhumerus 15.6097 -2.09101 -77.5917
rradius 33.144
rwrist -2.77698
rhand -14.7743 14.2012
rfingers 7.12502
rthumb 11.3825 -15.4699
lclavicle -2.26615e-014 4.53229e-014
lhumerus 3.24335 -24.4985 82.1798
lradius 32.3293
lwrist -16.2033
lhand -24.31 -12.0523
lfingers 7.12502
lthumb 2.178 17.9163
rfemur -34.4324 -8.53588 15.9495
rtibia 64.7268
rfoot -23.1844 18.3832
rtoes -2.58491
lfemur -44.0299 9.52968 -18.5788
ltibia 56.0953
lfoot -8.23014 -5.96987
ltoes -10.5175
68
root 8.44267 17.4161 2.06608 -193.933 83.6224 -196.806
lowerback 27.4686 2.05781 1.95838
upperback 18.5429 5.66988 -2.88426
thorax 6.4813 4.34918 -5.35753
lowerneck 1.76263 -7.27313 2.06607
upperneck 3.8987 -9.74921 5.50589
head 1.10509 -4.75867 1.30875
rclavicle -1.90833e-014 4.17448e-014
rhumerus 15.8154 -2.10599 -77.2254
rradius 32.7591
rwrist -2.51282
rhand -14.6233 14.1186
rfingers 7.12502
rthumb 11.528 -15.5444
lclavicle -1.90833e-014 4.17448e-014
lhumerus 4.17279 -25.1644 81.7163
lradius 32.3748
lwrist -16.1244
lhand -24.4874 -12.1452
lfingers 7.12502
lthumb 2.00664 17.8251
rfemur -35.6989 -8.70636 15.6851
rtibia 66.7368
rfoot -23.5092 18.6442
rtoes -2.78267
lfemur -45.3157 9.44692 -18.8515
ltibia 57.9389
lfoot -8.92762 -6.11186
ltoes -10.3488
69
root 8.45494 17.2784 2.03791 -194.581 83.5051 -197.617
lowerback 27.9832 1.98281 2.0242
upperback 18.5073 5.59729 -2.85724
thorax 6.19893 4.31667 -5.39793
lowerneck 1.66572 -7.34342 2.07929
upperneck 3.85315 -9.84868 5.57127
head 1.11221 -4.80825 1.32309
rclavicle 2.5842e-014 5.1684e-015
rhumerus 16.0407 -2.10323 -76.8117
rradius 32.3623
rwrist -2.32742
rhand -14.4627 13.9877
rfingers 7.12502
rthumb 11.6829 -15.6666
lclavicle 2.5842e-014 5.1684e-015
lhumerus 5.18291 -25.8887 81.1863
lradius 32.3456
lwrist -16.0281
lhand -24.7696 -12.1921
lfingers 7.12502
lthumb 1.73407 17.7806
rfemur -36.9495 -8.89589 15.4208
rtibia 68.7839
rfoot -23.8302 18.9298
rtoes -3.10389
lfemur -46.5781 9.39124 -19.1112
ltibia 59.8163
lfoot -9.63213 -6.2568
ltoes -10.3035
70
root 8.46974 17.1378 2.00852 -195.398 83.3941 -198.564
lowerback 28.4814 1.90595 2.08516
upperback 18.4919 5.52682 -2.82593
thorax 5.95012 4.28672 -5.42742
lowerneck 1.47392 -7.42475 2.08757
upperneck 3.91381 -9.97095 5.5916
head 1.16686 -4.86469 1.31813
rclavicle -1.82882e-014 2.5842e-014
rhumerus 16.3133 -2.16612 -76.4056
rradius 31.9098
rwrist -2.08025
rhand -14.2052 13.8825
rfingers 7.12502
rthumb 11.9313 -15.7575
lclavicle -1.82882e-014 2.5842e-014
lhumerus 6.23726 -26.6298 80.6061
lradius 32.3649
lwrist -15.7644
lhand -24.9934 -12.0299
lfingers 7.12502
lthumb 1.51797 17.9445
rfemur -38.1501 -9.05725 15.1138
rtibia 70.8353
rfoot -24.1104 19.2629
rtoes -3.24266
lfemur -47.8002 9.36231 -19.3908
ltibia 61.7079
lfoot -10.3819 -6.43485
ltoes -10.0633
71
root 8.48578 16.992 1.98046 -196.512 83.256 -199.803
lowerback 28.9566 1.82927 2.07862
upperback 18.491 5.44576 -2.79183
thorax 5.72277 4.24595 -5.40951
lowerneck 1.23841 -7.48811 2.09729
upperneck 3.96313 -10.0716 5.60572
head 1.22449 -4.91029 1.30946
rclavicle 7.95139e-015 -1.35174e-014
rhumerus 16.6224 -2.06834 -75.9238
rradius 31.4373
rwrist -1.94256
rhand -14.0417 13.7515
rfingers 7.12502
rthumb 12.0889 -15.8793
lclavicle 7.95139e-015 -1.35174e-014
lhumerus 7.30501 -27.3157 79.9847
lradius 32.4091
lwrist -15.4251
lhand -25.2003 -11.8787
lfingers 7.12502
lthumb 1.31811 18.097
rfemur -39.3586 -9.25914 14.757
rtibia 72.8981
rfoot -24.3714 19.6175
rtoes -3.56313
lfemur -49.0247 9.33034 -19.7156
ltibia 63.6134
lfoot -11.1109 -6.5935
ltoes -10.033
72
root 8.50435 16.8436 1.95172 -197.241 83.1695 -200.617
lowerback 29.5985 1.75754 2.10992
upperback 18.6202 5.41655 -2.88556
thorax 5.22337 4.20947 -5.25592
lowerneck 0.913323 -7.56586 2.00963
upperneck 4.1073 -10.2018 5.66028
head 1.336 -4.96692 1.32284
rclavicle -1.74931e-014 -6.55989e-014
rhumerus 16.9834 -1.98029 -75.3982
rradius 30.8709
rwrist -1.78754
rhand -13.8642 13.6557
rfingers 7.12502
rthumb 12.2601 -15.9649
lclavicle -1.74931e-014 -6.55989e-014
lhumerus 8.34321 -28.0265 79.3169
lradius 32.5624
lwrist -15.084
lhand -25.4229 -11.7778
lfingers 7.12502
lthumb 1.10313 18.1991
rfemur -40.5229 -9.44302 14.4613
rtibia 74.953
rfoot -24.6038 19.9426
rtoes -3.89238
lfemur -50.2111 9.36529 -19.9838
ltibia 65.5243
lfoot -11.8658 -6.76812
ltoes -10.0153
73
root 8.52445 16.6915 1.9241 -197.999 83.0771 -201.431
lowerback 30.0711 1.68951 2.13529
upperback 18.6417 5.3626 -2.81959
thorax 5.04989 4.18705 -5.21442
lowerneck 0.543127 -7.62839 2.0009
upperneck 4.23714 -10.3117 5.6616
head 1.44317 -5.01277 1.30547
rclavicle -5.40694e-014 1.98785e-015
rhumerus 17.3819 -1.94499 -74.9282
rradius 30.2847
rwrist -1.51954
rhand -13.7229 13.599
rfingers 7.12502
rthumb 12.3963 -16.0134
lclavicle -5.40694e-014 1.98785e-015
lhumerus 9.38407 -28.7125 78.5952
lradius 32.7577
lwrist -14.7384
lhand -25.6549 -11.6523
lfingers 7.12502
lthumb 0.8791 18.3256
rfemur -41.6459 -9.60852 14.1512
rtibia 77.0052
rfoot -24.8112 20.337
rtoes -4.01598
lfemur -51.373 9.40286 -20.2351
ltibia 67.4504
lfoot -12.6122 -6.97725
ltoes -9.88168
74
root 8.54715 16.5376 1.89654 -198.416 82.995 -201.912
lowerback 30.4888 1.61743 2.18232
upperback 18.6534 5.30307 -2.71967
thorax 4.88742 4.15866 -5.1442
lowerneck 0.229198 -7.68935 1.91961
upperneck 4.38046 -10.4166 5.67267
head 1.55025 -5.05721 1.30455
rclavicle 3.10104e-014 -6.32135e-014
rhumerus 17.7409 -1.78931 -74.3712
rradius 29.7251
rwrist -1.36802
rhand -13.6003 13.5645
rfingers 7.12502
rthumb 12.5145 -16.0408
lclavicle 3.10104e-014 -6.32135e-014
lhumerus 10.4081 -29.3121 77.9155
lradius 32.9241
lwrist -14.3735
lhand -25.8276 -11.5398
lfingers 7.12502
lthumb 0.712262 18.4388
rfemur -42.7951 -9.78377 13.8835
rtibia 79.0667
rfoot -25.0284 20.6577
rtoes -4.44496
lfemur -52.5509 9.47114 -20.4596
ltibia 69.3758
lfoot -13.3605 -7.15021
ltoes -9.88731
75
root 8.57179 16.3809 1.86952 -198.994 82.9415 -202.5
lowerback 30.9176 1.56013 2.25066
upperback 18.6911 5.27624 -2.63439
thorax 4.75792 4.15393 -5.10626
lowerneck -0.170683 -7.76503 1.93269
upperneck 4.56369 -10.5455 5.62846
head 1.67713 -5.11036 1.26631
rclavicle -4.45278e-014 1.27222e-014
rhumerus 18.1379 -1.74176 -73.881
rradius 29.1281
rwrist -1.31983
rhand -13.4887 13.5253
rfingers 7.12502
rthumb 12.6221 -16.0734
lclavicle -4.45278e-014 1.27222e-014
lhumerus 11.5107 -30.0033 77.1101
lradius 33.1248
lwrist -13.925
lhand -25.9926 -11.4042
lfingers 7.12502
lthumb 0.552898 18.5749
rfemur -43.8831 -9.94608 13.5943
rtibia 81.1306
rfoot -25.2624 20.9873
rtoes -5.11738
lfemur -53.6593 9.56059 -20.6648
ltibia 71.3102
lfoot -14.1076 -7.37343
ltoes -9.76356
76
root 8.59598 16.2222 1.84192 -199.626 82.8615 -203.154
lowerback 31.3206 1.49901 2.34007
upperback 18.7139 5.24769 -2.5669
thorax 4.62642 4.15014 -5.09688
lowerneck -0.568271 -7.8373 2.06263
upperneck 4.76459 -10.6697 5.54162
head 1.8002 -5.159 1.19562
rclavicle -1.35174e-014 3.4191e-014
rhumerus 18.4868 -1.72401 -73.4243
rradius 28.5425
rwrist -1.30184
rhand -13.4368 13.5533
rfingers 7.12502
rthumb 12.6721 -16.0422
lclavicle -1.35174e-014 3.4191e-014
lhumerus 12.637 -30.7221 76.2456
lradius 33.3137
lwrist -13.4307
lhand -26.128 -11.2351
lfingers 7.12502
lthumb 0.422099 18.7442
rfemur -45.0042 -10.1508 13.2784
rtibia 83.2
rfoot -25.4095 21.3427
rtoes -5.59726
lfemur -54.7992 9.627 -20.8965
ltibia 73.2421
lfoot -14.7876 -7.58507
ltoes -9.36359
77
root 8.62138 16.0597 1.81461 -200.5 82.7892 -203.988
lowerback 31.7008 1.44071 2.38717
upperback 18.7852 5.22299 -2.48303
thorax 4.5555 4.1489 -5.04382
lowerneck -0.94296 -7.9115 2.13439
upperneck 4.92385 -10.7944 5.46894
head 1.91063 -5.21071 1.13989
rclavicle -1.51076e-014 -1.86858e-014
rhumerus 18.877 -1.69072 -72.9396
rradius 27.9717
rwrist -1.26847
rhand -13.3396 13.5887
rfingers 7.12502
rthumb 12.7659 -16.0011
lclavicle -1.51076e-014 -1.86858e-014
lhumerus 13.8128 -31.3205 75.3835
lradius 33.502
lwrist -13.0625
lhand -26.2112 -11.0192
lfingers 7.12502
lthumb 0.34173 18.9603
rfemur -46.0356 -10.3613 12.9178
rtibia 85.2412
rfoot -25.4987 21.7323
rtoes -6.06209
lfemur -55.8725 9.7179 -21.1496
ltibia 75.1792
lfoot -15.5205 -7.72342
ltoes -9.4514
